<svg width="1440" height="8627" viewBox="0 0 1440 8627" fill="none" xmlns="http://www.w3.org/2000/svg">
<path d="M-105.11 7032.6C-105.11 7032.6 -22.61 7000.11 74.8901 7091.6C140.29 7152.97 140.89 7195.7 164.151 7299.75C192.651 7427.24 279.469 7616.77 495.89 7525.6C611.774 7476.79 601.99 7609.26 532.89 7740.6C489.096 7823.84 399.031 7914.97 375.89 7932.6C217.107 8053.59 -17.7769 8040.88 -106.11 8017.6C-194.104 7994.41 -126.103 7037.1 -105.11 7032.6Z" fill="#4C40F7"/>
<path fill-rule="evenodd" clip-rule="evenodd" d="M1437.31 6289.53C1575.62 6276.6 1725.61 6312.36 1817.57 6416.43C1906.16 6516.69 1886.6 6662.72 1885.25 6796.48C1883.92 6928.15 1900.16 7072.97 1809.96 7168.93C1718.15 7266.6 1569.58 7294.95 1437.31 7273.01C1321.26 7253.75 1250.76 7149.09 1170.76 7062.89C1095.53 6981.82 1004.29 6906.66 995.063 6796.48C985.245 6679.19 1044.7 6570.15 1122.09 6481.44C1206.14 6385.09 1309.96 6301.43 1437.31 6289.53Z" fill="#FFCC00"/>
<path opacity="0.1" d="M1710.11 4661.2C1702.45 4670.45 1594.03 4530.69 1422.69 4572.67C1251.35 4614.65 1309.66 4713.71 1204.27 4768.24C1098.88 4822.77 1014.94 4742.15 919.219 4792.12C823.496 4842.1 801.072 4966.53 706.217 5006.27C611.362 5046 549.811 4944.77 446.696 4999.36C343.581 5053.96 390.732 5129.78 266.383 5192.15C142.035 5254.51 70.3884 5169.67 -48.9576 5257.89C-168.304 5346.1 -160.331 5577.17 -160.331 5577.17" stroke="#4C40F7" stroke-width="15"/>
<path opacity="0.1" d="M1710.11 5181.2C1702.45 5190.45 1594.03 5050.69 1422.69 5092.67C1251.35 5134.65 1309.66 5233.71 1204.27 5288.24C1098.88 5342.77 1014.94 5262.15 919.219 5312.12C823.496 5362.1 801.072 5486.53 706.217 5526.27C611.362 5566 549.811 5464.77 446.696 5519.36C343.581 5573.96 390.732 5649.78 266.383 5712.15C142.035 5774.51 70.3884 5689.67 -48.9576 5777.89C-168.304 5866.1 -160.331 6097.17 -160.331 6097.17" stroke="#4C40F7" stroke-width="15"/>
<path fill-rule="evenodd" clip-rule="evenodd" d="M178.573 2512.3C360.096 2531.24 524.477 2595.19 667.114 2708.97C833.083 2841.36 1004.07 2987.53 1037.12 3197.16C1074.7 3435.53 1035.2 3713.27 849.838 3867.94C670.878 4017.26 411.59 3921.23 178.573 3913.53C-41.1755 3906.27 -297.125 3983.18 -449.71 3824.99C-601.551 3667.57 -517.009 3415.75 -512.423 3197.16C-508 2986.34 -573.728 2743.6 -423.908 2595.11C-274.283 2446.81 -31.0257 2490.43 178.573 2512.3Z" fill="#FE9602"/>
<path opacity="0.05" d="M1710.11 286.383C1702.45 295.637 1594.03 155.875 1422.69 197.854C1251.35 239.833 1309.66 338.89 1204.27 393.42C1098.88 447.95 1014.94 367.332 919.219 417.307C823.496 467.282 801.072 591.715 706.217 631.45C611.362 671.185 549.811 569.951 446.696 624.547C343.581 679.143 390.732 754.965 266.383 817.329C142.035 879.694 70.3884 794.853 -48.9576 883.069C-168.304 971.285 -160.331 1202.36 -160.331 1202.36" stroke="#4C40F7" stroke-width="15"/>
<path opacity="0.05" d="M1710.11 1524.87C1702.45 1534.12 1594.03 1394.36 1422.69 1436.34C1251.35 1478.32 1309.66 1577.38 1204.27 1631.91C1098.88 1686.44 1014.94 1605.82 919.219 1655.79C823.496 1705.77 801.072 1830.2 706.217 1869.94C611.362 1909.67 549.811 1808.44 446.696 1863.03C343.581 1917.63 390.732 1993.45 266.383 2055.82C142.035 2118.18 70.3884 2033.34 -48.9576 2121.56C-168.304 2209.77 -160.331 2440.84 -160.331 2440.84" stroke="#4C40F7" stroke-width="15"/>
<path d="M1731.25 2425.87C1731.25 2425.87 1323.03 2348.69 1059.79 2751.66C938.133 2937.9 918.159 3055.64 938.642 3242.32C969.359 3522.3 1019.13 3587.38 1242 3493.19C1361.58 3442.65 1488.42 3383.69 1488.42 3383.69C1558.96 3349.41 1764.15 3281.16 1799.73 3284.82C1835.31 3288.47 1803.51 2422.18 1731.25 2425.87Z" fill="#FF3B2F"/>
</svg>
