<svg width="157" height="157" viewBox="0 0 157 157" fill="none" xmlns="http://www.w3.org/2000/svg">
<g filter="url(#filter0_d_0_497)">
<circle cx="78.5" cy="63.5" r="48.5" fill="#4C40F7"/>
<path d="M79.5615 46.3872C79.253 46.1659 78.8825 46.0479 78.5028 46.0498C78.1232 46.0518 77.7539 46.1737 77.4477 46.3982C74.0854 48.8347 63.8334 57.1287 63.8334 67.6667C63.8334 73.6196 67.4047 78.7456 72.5124 81.0427C71.6385 79.8129 71.1683 78.342 71.1667 76.8334C71.1355 70.9282 77.6897 64.1962 77.9684 64.0001C78.1231 63.8892 78.3087 63.8295 78.4991 63.8295C78.6895 63.8295 78.8751 63.8892 79.0299 64.0001C79.3085 64.1962 85.8334 69.4524 85.8334 76.8371C85.8334 78.4027 85.3292 79.8492 84.4895 81.0427C89.5954 78.7456 93.1667 73.6214 93.1667 67.6759C93.1667 56.9307 82.933 48.7797 79.5615 46.3872Z" fill="white"/>
</g>
<defs>
<filter id="filter0_d_0_497" x="0" y="0" width="157" height="157" filterUnits="userSpaceOnUse" color-interpolation-filters="sRGB">
<feFlood flood-opacity="0" result="BackgroundImageFix"/>
<feColorMatrix in="SourceAlpha" type="matrix" values="0 0 0 0 0 0 0 0 0 0 0 0 0 0 0 0 0 0 127 0" result="hardAlpha"/>
<feOffset dy="15"/>
<feGaussianBlur stdDeviation="15"/>
<feComposite in2="hardAlpha" operator="out"/>
<feColorMatrix type="matrix" values="0 0 0 0 0.214421 0 0 0 0 0.177604 0 0 0 0 0.739062 0 0 0 1 0"/>
<feBlend mode="normal" in2="BackgroundImageFix" result="effect1_dropShadow_0_497"/>
<feBlend mode="normal" in="SourceGraphic" in2="effect1_dropShadow_0_497" result="shape"/>
</filter>
</defs>
</svg>
